<mxfile host="app.diagrams.net" modified="2020-11-06T08:36:02.538Z" agent="5.0 (Macintosh; Intel Mac OS X 10_15_4) AppleWebKit/537.36 (KHTML, like Gecko) Chrome/86.0.4240.183 Safari/537.36" etag="gY_HbTlU6TD7ghHJJGhH" version="13.9.1" type="github">
  <diagram id="M79XpnLEsQZCw-oLoceA" name="Page-1">
    <mxGraphModel dx="1426" dy="826" grid="1" gridSize="10" guides="1" tooltips="1" connect="1" arrows="0" fold="1" page="1" pageScale="1" pageWidth="3300" pageHeight="4681" math="0" shadow="0">
      <root>
        <mxCell id="0" />
        <mxCell id="1" parent="0" />
        <mxCell id="bgfyPfwvlPDdOilsteuH-1" value="" style="rounded=1;whiteSpace=wrap;html=1;dashed=1;strokeColor=#7EA6E0;" vertex="1" parent="1">
          <mxGeometry x="310" y="550" width="230" height="60" as="geometry" />
        </mxCell>
        <mxCell id="bgfyPfwvlPDdOilsteuH-2" value="binglog" style="rounded=0;whiteSpace=wrap;html=1;strokeColor=#006EAF;fillColor=#1ba1e2;fontColor=#ffffff;" vertex="1" parent="1">
          <mxGeometry x="320" y="570" width="60" height="20" as="geometry" />
        </mxCell>
        <mxCell id="bgfyPfwvlPDdOilsteuH-3" value="kafka" style="rounded=0;whiteSpace=wrap;html=1;strokeColor=#006EAF;fillColor=#1ba1e2;fontColor=#ffffff;" vertex="1" parent="1">
          <mxGeometry x="390" y="570" width="60" height="20" as="geometry" />
        </mxCell>
        <mxCell id="bgfyPfwvlPDdOilsteuH-4" value="日志流量" style="rounded=0;whiteSpace=wrap;html=1;strokeColor=#006EAF;fillColor=#1ba1e2;fontColor=#ffffff;" vertex="1" parent="1">
          <mxGeometry x="460" y="570" width="60" height="20" as="geometry" />
        </mxCell>
        <mxCell id="bgfyPfwvlPDdOilsteuH-5" value="&lt;font style=&quot;font-size: 15px&quot;&gt;接入层&lt;/font&gt;" style="text;html=1;strokeColor=none;fillColor=none;align=center;verticalAlign=middle;whiteSpace=wrap;rounded=0;" vertex="1" parent="1">
          <mxGeometry x="220" y="570" width="60" height="20" as="geometry" />
        </mxCell>
        <mxCell id="bgfyPfwvlPDdOilsteuH-6" value="" style="rounded=1;whiteSpace=wrap;html=1;dashed=1;strokeColor=#7EA6E0;" vertex="1" parent="1">
          <mxGeometry x="310" y="456" width="340" height="60" as="geometry" />
        </mxCell>
        <mxCell id="bgfyPfwvlPDdOilsteuH-10" value="Flink" style="rounded=0;whiteSpace=wrap;html=1;strokeColor=#006EAF;fillColor=#1ba1e2;fontColor=#ffffff;" vertex="1" parent="1">
          <mxGeometry x="340" y="476" width="60" height="20" as="geometry" />
        </mxCell>
        <mxCell id="bgfyPfwvlPDdOilsteuH-11" value="Spark Streaming" style="rounded=0;whiteSpace=wrap;html=1;strokeColor=#006EAF;fillColor=#1ba1e2;fontColor=#ffffff;" vertex="1" parent="1">
          <mxGeometry x="430" y="476" width="100" height="20" as="geometry" />
        </mxCell>
        <mxCell id="bgfyPfwvlPDdOilsteuH-12" value="Storm" style="rounded=0;whiteSpace=wrap;html=1;strokeColor=#006EAF;fillColor=#1ba1e2;fontColor=#ffffff;" vertex="1" parent="1">
          <mxGeometry x="550" y="476" width="60" height="20" as="geometry" />
        </mxCell>
        <mxCell id="bgfyPfwvlPDdOilsteuH-13" value="&lt;span style=&quot;font-size: 15px&quot;&gt;计算层&lt;/span&gt;" style="text;html=1;strokeColor=none;fillColor=none;align=center;verticalAlign=middle;whiteSpace=wrap;rounded=0;" vertex="1" parent="1">
          <mxGeometry x="220" y="466" width="60" height="20" as="geometry" />
        </mxCell>
        <mxCell id="bgfyPfwvlPDdOilsteuH-14" value="&lt;span style=&quot;font-size: 15px&quot;&gt;存储层&lt;/span&gt;" style="text;html=1;strokeColor=none;fillColor=none;align=center;verticalAlign=middle;whiteSpace=wrap;rounded=0;" vertex="1" parent="1">
          <mxGeometry x="220" y="374" width="60" height="20" as="geometry" />
        </mxCell>
        <mxCell id="bgfyPfwvlPDdOilsteuH-16" value="" style="rounded=1;whiteSpace=wrap;html=1;dashed=1;strokeColor=#7EA6E0;" vertex="1" parent="1">
          <mxGeometry x="310" y="354" width="340" height="60" as="geometry" />
        </mxCell>
        <mxCell id="bgfyPfwvlPDdOilsteuH-17" value="mysql" style="rounded=0;whiteSpace=wrap;html=1;strokeColor=#006EAF;fillColor=#1ba1e2;fontColor=#ffffff;" vertex="1" parent="1">
          <mxGeometry x="320" y="374" width="60" height="20" as="geometry" />
        </mxCell>
        <mxCell id="bgfyPfwvlPDdOilsteuH-18" value="clickhouse" style="rounded=0;whiteSpace=wrap;html=1;strokeColor=#006EAF;fillColor=#1ba1e2;fontColor=#ffffff;" vertex="1" parent="1">
          <mxGeometry x="390" y="374" width="100" height="20" as="geometry" />
        </mxCell>
        <mxCell id="bgfyPfwvlPDdOilsteuH-19" value="hive" style="rounded=0;whiteSpace=wrap;html=1;strokeColor=#006EAF;fillColor=#1ba1e2;fontColor=#ffffff;" vertex="1" parent="1">
          <mxGeometry x="500" y="374" width="60" height="20" as="geometry" />
        </mxCell>
        <mxCell id="bgfyPfwvlPDdOilsteuH-21" value="kafka" style="rounded=0;whiteSpace=wrap;html=1;strokeColor=#006EAF;fillColor=#1ba1e2;fontColor=#ffffff;" vertex="1" parent="1">
          <mxGeometry x="580" y="374" width="60" height="20" as="geometry" />
        </mxCell>
        <mxCell id="bgfyPfwvlPDdOilsteuH-22" value="&lt;span style=&quot;font-size: 15px&quot;&gt;服务层&lt;/span&gt;" style="text;html=1;strokeColor=none;fillColor=none;align=center;verticalAlign=middle;whiteSpace=wrap;rounded=0;" vertex="1" parent="1">
          <mxGeometry x="220" y="290" width="60" height="20" as="geometry" />
        </mxCell>
        <mxCell id="bgfyPfwvlPDdOilsteuH-23" value="" style="rounded=1;whiteSpace=wrap;html=1;dashed=1;strokeColor=#7EA6E0;" vertex="1" parent="1">
          <mxGeometry x="310" y="270" width="270" height="60" as="geometry" />
        </mxCell>
        <mxCell id="bgfyPfwvlPDdOilsteuH-24" value="report engine" style="rounded=0;whiteSpace=wrap;html=1;strokeColor=#006EAF;fillColor=#1ba1e2;fontColor=#ffffff;" vertex="1" parent="1">
          <mxGeometry x="320" y="290" width="80" height="20" as="geometry" />
        </mxCell>
        <mxCell id="bgfyPfwvlPDdOilsteuH-25" value="query engine" style="rounded=0;whiteSpace=wrap;html=1;strokeColor=#006EAF;fillColor=#1ba1e2;fontColor=#ffffff;" vertex="1" parent="1">
          <mxGeometry x="420" y="290" width="80" height="20" as="geometry" />
        </mxCell>
        <mxCell id="bgfyPfwvlPDdOilsteuH-26" value="风神" style="rounded=0;whiteSpace=wrap;html=1;strokeColor=#006EAF;fillColor=#1ba1e2;fontColor=#ffffff;" vertex="1" parent="1">
          <mxGeometry x="510" y="290" width="60" height="20" as="geometry" />
        </mxCell>
        <mxCell id="bgfyPfwvlPDdOilsteuH-29" value="&lt;span style=&quot;font-size: 15px&quot;&gt;应用层&lt;/span&gt;" style="text;html=1;strokeColor=none;fillColor=none;align=center;verticalAlign=middle;whiteSpace=wrap;rounded=0;" vertex="1" parent="1">
          <mxGeometry x="220" y="210" width="60" height="20" as="geometry" />
        </mxCell>
        <mxCell id="bgfyPfwvlPDdOilsteuH-30" value="" style="shape=flexArrow;endArrow=classic;html=1;width=8;endSize=4.33;exitX=0.472;exitY=0;exitDx=0;exitDy=0;exitPerimeter=0;" edge="1" parent="1" source="bgfyPfwvlPDdOilsteuH-1">
          <mxGeometry width="50" height="50" relative="1" as="geometry">
            <mxPoint x="420" y="550" as="sourcePoint" />
            <mxPoint x="419" y="520" as="targetPoint" />
          </mxGeometry>
        </mxCell>
        <mxCell id="bgfyPfwvlPDdOilsteuH-31" value="离线ETL" style="rounded=1;whiteSpace=wrap;html=1;dashed=1;strokeColor=#7EA6E0;" vertex="1" parent="1">
          <mxGeometry x="580" y="550" width="70" height="60" as="geometry" />
        </mxCell>
        <mxCell id="bgfyPfwvlPDdOilsteuH-32" value="" style="shape=flexArrow;endArrow=classic;html=1;exitX=0.471;exitY=0;exitDx=0;exitDy=0;exitPerimeter=0;startArrow=block;width=8;endSize=3;startSize=3;" edge="1" parent="1" source="bgfyPfwvlPDdOilsteuH-6">
          <mxGeometry width="50" height="50" relative="1" as="geometry">
            <mxPoint x="470" y="447" as="sourcePoint" />
            <mxPoint x="470" y="410" as="targetPoint" />
          </mxGeometry>
        </mxCell>
        <mxCell id="bgfyPfwvlPDdOilsteuH-34" value="" style="rounded=1;whiteSpace=wrap;html=1;dashed=1;strokeColor=#7EA6E0;" vertex="1" parent="1">
          <mxGeometry x="310" y="190" width="340" height="60" as="geometry" />
        </mxCell>
        <mxCell id="bgfyPfwvlPDdOilsteuH-35" value="Sass BI" style="rounded=0;whiteSpace=wrap;html=1;strokeColor=#006EAF;fillColor=#1ba1e2;fontColor=#ffffff;" vertex="1" parent="1">
          <mxGeometry x="320" y="210" width="60" height="20" as="geometry" />
        </mxCell>
        <mxCell id="bgfyPfwvlPDdOilsteuH-36" value="看板" style="rounded=0;whiteSpace=wrap;html=1;strokeColor=#006EAF;fillColor=#1ba1e2;fontColor=#ffffff;" vertex="1" parent="1">
          <mxGeometry x="400" y="210" width="60" height="20" as="geometry" />
        </mxCell>
        <mxCell id="bgfyPfwvlPDdOilsteuH-37" value="AI" style="rounded=0;whiteSpace=wrap;html=1;strokeColor=#006EAF;fillColor=#1ba1e2;fontColor=#ffffff;" vertex="1" parent="1">
          <mxGeometry x="480" y="210" width="60" height="20" as="geometry" />
        </mxCell>
        <mxCell id="bgfyPfwvlPDdOilsteuH-38" value="....." style="rounded=0;whiteSpace=wrap;html=1;strokeColor=#006EAF;fillColor=#1ba1e2;fontColor=#ffffff;" vertex="1" parent="1">
          <mxGeometry x="560" y="210" width="60" height="20" as="geometry" />
        </mxCell>
        <mxCell id="bgfyPfwvlPDdOilsteuH-39" value="" style="shape=flexArrow;endArrow=classic;html=1;width=8;endSize=4.33;exitX=0.472;exitY=0;exitDx=0;exitDy=0;exitPerimeter=0;" edge="1" parent="1">
          <mxGeometry width="50" height="50" relative="1" as="geometry">
            <mxPoint x="439.5" y="354" as="sourcePoint" />
            <mxPoint x="440" y="330" as="targetPoint" />
          </mxGeometry>
        </mxCell>
        <mxCell id="bgfyPfwvlPDdOilsteuH-40" value="" style="shape=flexArrow;endArrow=classic;html=1;width=8;endSize=4.33;" edge="1" parent="1">
          <mxGeometry width="50" height="50" relative="1" as="geometry">
            <mxPoint x="611" y="330" as="sourcePoint" />
            <mxPoint x="611" y="260" as="targetPoint" />
          </mxGeometry>
        </mxCell>
        <mxCell id="bgfyPfwvlPDdOilsteuH-43" value="" style="shape=flexArrow;endArrow=classic;html=1;width=8;endSize=4.33;exitX=1;exitY=0.5;exitDx=0;exitDy=0;entryX=0;entryY=0.5;entryDx=0;entryDy=0;" edge="1" parent="1" source="bgfyPfwvlPDdOilsteuH-1" target="bgfyPfwvlPDdOilsteuH-31">
          <mxGeometry width="50" height="50" relative="1" as="geometry">
            <mxPoint x="560" y="595" as="sourcePoint" />
            <mxPoint x="560" y="565" as="targetPoint" />
          </mxGeometry>
        </mxCell>
        <mxCell id="bgfyPfwvlPDdOilsteuH-78" value="" style="rounded=1;whiteSpace=wrap;html=1;dashed=1;strokeColor=#7EA6E0;" vertex="1" parent="1">
          <mxGeometry x="355" y="1180" width="265" height="60" as="geometry" />
        </mxCell>
        <mxCell id="bgfyPfwvlPDdOilsteuH-79" value="业务数据" style="rounded=0;whiteSpace=wrap;html=1;strokeColor=#006EAF;fillColor=#1ba1e2;fontColor=#ffffff;" vertex="1" parent="1">
          <mxGeometry x="365" y="1200" width="60" height="20" as="geometry" />
        </mxCell>
        <mxCell id="bgfyPfwvlPDdOilsteuH-80" value="日志数据" style="rounded=0;whiteSpace=wrap;html=1;strokeColor=#006EAF;fillColor=#1ba1e2;fontColor=#ffffff;" vertex="1" parent="1">
          <mxGeometry x="455" y="1200" width="60" height="20" as="geometry" />
        </mxCell>
        <mxCell id="bgfyPfwvlPDdOilsteuH-82" value="&lt;span style=&quot;font-size: 15px&quot;&gt;ODS&lt;/span&gt;" style="text;html=1;strokeColor=none;fillColor=none;align=center;verticalAlign=middle;whiteSpace=wrap;rounded=0;" vertex="1" parent="1">
          <mxGeometry x="265" y="1200" width="60" height="20" as="geometry" />
        </mxCell>
        <mxCell id="bgfyPfwvlPDdOilsteuH-83" value="" style="rounded=1;whiteSpace=wrap;html=1;dashed=1;strokeColor=#7EA6E0;" vertex="1" parent="1">
          <mxGeometry x="355" y="1086" width="265" height="60" as="geometry" />
        </mxCell>
        <mxCell id="bgfyPfwvlPDdOilsteuH-84" value="实时明细数据" style="rounded=0;whiteSpace=wrap;html=1;strokeColor=#006EAF;fillColor=#1ba1e2;fontColor=#ffffff;" vertex="1" parent="1">
          <mxGeometry x="395" y="1106" width="155" height="20" as="geometry" />
        </mxCell>
        <mxCell id="bgfyPfwvlPDdOilsteuH-89" value="" style="rounded=1;whiteSpace=wrap;html=1;dashed=1;strokeColor=#7EA6E0;" vertex="1" parent="1">
          <mxGeometry x="355" y="984" width="340" height="60" as="geometry" />
        </mxCell>
        <mxCell id="bgfyPfwvlPDdOilsteuH-90" value="mysql" style="rounded=0;whiteSpace=wrap;html=1;strokeColor=#006EAF;fillColor=#1ba1e2;fontColor=#ffffff;" vertex="1" parent="1">
          <mxGeometry x="365" y="1004" width="60" height="20" as="geometry" />
        </mxCell>
        <mxCell id="bgfyPfwvlPDdOilsteuH-91" value="clickhouse" style="rounded=0;whiteSpace=wrap;html=1;strokeColor=#006EAF;fillColor=#1ba1e2;fontColor=#ffffff;" vertex="1" parent="1">
          <mxGeometry x="435" y="1004" width="100" height="20" as="geometry" />
        </mxCell>
        <mxCell id="bgfyPfwvlPDdOilsteuH-92" value="hive" style="rounded=0;whiteSpace=wrap;html=1;strokeColor=#006EAF;fillColor=#1ba1e2;fontColor=#ffffff;" vertex="1" parent="1">
          <mxGeometry x="545" y="1004" width="60" height="20" as="geometry" />
        </mxCell>
        <mxCell id="bgfyPfwvlPDdOilsteuH-93" value="kafka" style="rounded=0;whiteSpace=wrap;html=1;strokeColor=#006EAF;fillColor=#1ba1e2;fontColor=#ffffff;" vertex="1" parent="1">
          <mxGeometry x="625" y="1004" width="60" height="20" as="geometry" />
        </mxCell>
        <mxCell id="bgfyPfwvlPDdOilsteuH-94" value="&lt;span style=&quot;font-size: 15px&quot;&gt;服务层&lt;/span&gt;" style="text;html=1;strokeColor=none;fillColor=none;align=center;verticalAlign=middle;whiteSpace=wrap;rounded=0;" vertex="1" parent="1">
          <mxGeometry x="265" y="920" width="60" height="20" as="geometry" />
        </mxCell>
        <mxCell id="bgfyPfwvlPDdOilsteuH-95" value="" style="rounded=1;whiteSpace=wrap;html=1;dashed=1;strokeColor=#7EA6E0;" vertex="1" parent="1">
          <mxGeometry x="355" y="900" width="270" height="60" as="geometry" />
        </mxCell>
        <mxCell id="bgfyPfwvlPDdOilsteuH-96" value="report engine" style="rounded=0;whiteSpace=wrap;html=1;strokeColor=#006EAF;fillColor=#1ba1e2;fontColor=#ffffff;" vertex="1" parent="1">
          <mxGeometry x="365" y="920" width="80" height="20" as="geometry" />
        </mxCell>
        <mxCell id="bgfyPfwvlPDdOilsteuH-97" value="query engine" style="rounded=0;whiteSpace=wrap;html=1;strokeColor=#006EAF;fillColor=#1ba1e2;fontColor=#ffffff;" vertex="1" parent="1">
          <mxGeometry x="465" y="920" width="80" height="20" as="geometry" />
        </mxCell>
        <mxCell id="bgfyPfwvlPDdOilsteuH-98" value="风神" style="rounded=0;whiteSpace=wrap;html=1;strokeColor=#006EAF;fillColor=#1ba1e2;fontColor=#ffffff;" vertex="1" parent="1">
          <mxGeometry x="555" y="920" width="60" height="20" as="geometry" />
        </mxCell>
        <mxCell id="bgfyPfwvlPDdOilsteuH-99" value="&lt;span style=&quot;font-size: 15px&quot;&gt;应用层&lt;/span&gt;" style="text;html=1;strokeColor=none;fillColor=none;align=center;verticalAlign=middle;whiteSpace=wrap;rounded=0;" vertex="1" parent="1">
          <mxGeometry x="265" y="840" width="60" height="20" as="geometry" />
        </mxCell>
        <mxCell id="bgfyPfwvlPDdOilsteuH-103" value="" style="rounded=1;whiteSpace=wrap;html=1;dashed=1;strokeColor=#7EA6E0;" vertex="1" parent="1">
          <mxGeometry x="355" y="820" width="340" height="60" as="geometry" />
        </mxCell>
        <mxCell id="bgfyPfwvlPDdOilsteuH-104" value="Sass BI" style="rounded=0;whiteSpace=wrap;html=1;strokeColor=#006EAF;fillColor=#1ba1e2;fontColor=#ffffff;" vertex="1" parent="1">
          <mxGeometry x="365" y="840" width="60" height="20" as="geometry" />
        </mxCell>
        <mxCell id="bgfyPfwvlPDdOilsteuH-105" value="看板" style="rounded=0;whiteSpace=wrap;html=1;strokeColor=#006EAF;fillColor=#1ba1e2;fontColor=#ffffff;" vertex="1" parent="1">
          <mxGeometry x="445" y="840" width="60" height="20" as="geometry" />
        </mxCell>
        <mxCell id="bgfyPfwvlPDdOilsteuH-106" value="AI" style="rounded=0;whiteSpace=wrap;html=1;strokeColor=#006EAF;fillColor=#1ba1e2;fontColor=#ffffff;" vertex="1" parent="1">
          <mxGeometry x="525" y="840" width="60" height="20" as="geometry" />
        </mxCell>
        <mxCell id="bgfyPfwvlPDdOilsteuH-107" value="....." style="rounded=0;whiteSpace=wrap;html=1;strokeColor=#006EAF;fillColor=#1ba1e2;fontColor=#ffffff;" vertex="1" parent="1">
          <mxGeometry x="605" y="840" width="60" height="20" as="geometry" />
        </mxCell>
        <mxCell id="bgfyPfwvlPDdOilsteuH-111" value="&lt;span style=&quot;font-size: 15px&quot;&gt;DWD&lt;/span&gt;" style="text;html=1;strokeColor=none;fillColor=none;align=center;verticalAlign=middle;whiteSpace=wrap;rounded=0;" vertex="1" parent="1">
          <mxGeometry x="265" y="1106" width="60" height="20" as="geometry" />
        </mxCell>
        <mxCell id="bgfyPfwvlPDdOilsteuH-112" value="其他数据" style="rounded=0;whiteSpace=wrap;html=1;strokeColor=#006EAF;fillColor=#1ba1e2;fontColor=#ffffff;" vertex="1" parent="1">
          <mxGeometry x="535" y="1200" width="75" height="20" as="geometry" />
        </mxCell>
      </root>
    </mxGraphModel>
  </diagram>
</mxfile>
